HIERARCHY
ROOT Hips
{
  OFFSET -69.4423 88.0299 51.6846
  CHANNELS 6 Xposition Yposition Zposition Zrotation Xrotation Yrotation
  JOINT Spine
  {
    OFFSET 12.0259 -0.162853 1.93176e-005
    CHANNELS 3 Zrotation Xrotation Yrotation
    JOINT Spine1
    {
      OFFSET 15.3169 -0.0121909 0
      CHANNELS 3 Zrotation Xrotation Yrotation
      JOINT Spine2
      {
        OFFSET 15.3176 -0.0121922 0
        CHANNELS 3 Zrotation Xrotation Yrotation
        JOINT Neck
        {
          OFFSET 19.9142 1.56236 0
          CHANNELS 3 Zrotation Xrotation Yrotation
          JOINT Head
          {
            OFFSET 6.92646 0 0
            CHANNELS 3 Zrotation Xrotation Yrotation
            End Site
            {
              OFFSET 20.7666 0 0
            }
          }
          JOINT LeftShoulder
          {
            OFFSET -4.94072 -1.14703 8.14416
            CHANNELS 3 Zrotation Xrotation Yrotation
            JOINT LeftArm
            {
              OFFSET 14.108 0 -2.74767e-005
              CHANNELS 3 Zrotation Xrotation Yrotation
              JOINT LeftForeArm
              {
                OFFSET 28.5802 -0.0783412 -0.0284884
                CHANNELS 3 Zrotation Xrotation Yrotation
                JOINT LeftHand
                {
                  OFFSET 27.092 0 0
                  CHANNELS 3 Zrotation Xrotation Yrotation
                  End Site
                  {
                    OFFSET 9.55928 -0.186424 0.145352
                  }
                }
              }
            }
          }
          JOINT RightShoulder
          {
            OFFSET -7.15748 -1.33027 -6.24935
            CHANNELS 3 Zrotation Xrotation Yrotation
            JOINT RightArm
            {
              OFFSET 14.108 0 1.82997e-005
              CHANNELS 3 Zrotation Xrotation Yrotation
              JOINT RightForeArm
              {
                OFFSET 28.5802 -0.0707221 2.30684e-005
                CHANNELS 3 Zrotation Xrotation Yrotation
                JOINT RightHand
                {
                  OFFSET 27.092 0 -1.30073e-005
                  CHANNELS 3 Zrotation Xrotation Yrotation
                  End Site
                  {
                    OFFSET 9.55929 -0.186417 -0.145354
                  }
                }
              }
            }
          }
        }
      }
    }
  }
  JOINT LeftUpLeg
  {
    OFFSET 0.00499725 -0.534999 8.837
    CHANNELS 3 Zrotation Xrotation Yrotation
    JOINT LeftLeg
    {
      OFFSET 39.9035 -0.00124594 0.000252775
      CHANNELS 3 Zrotation Xrotation Yrotation
      JOINT LeftFoot
      {
        OFFSET 39.6689 0 0
        CHANNELS 3 Zrotation Xrotation Yrotation
        JOINT LeftToe
        {
          OFFSET 10.1624 13.6296 0
          CHANNELS 3 Zrotation Xrotation Yrotation
          End Site
          {
            OFFSET 8.38147 0 0
          }
        }
      }
    }
  }
  JOINT RightUpLeg
  {
    OFFSET 0.00499725 -0.535 -8.837
    CHANNELS 3 Zrotation Xrotation Yrotation
    JOINT RightLeg
    {
      OFFSET 39.9036 -0.000268477 0.000106433
      CHANNELS 3 Zrotation Xrotation Yrotation
      JOINT RightFoot
      {
        OFFSET 39.6689 1.17892e-005 0
        CHANNELS 3 Zrotation Xrotation Yrotation
        JOINT RightToe
        {
          OFFSET 10.1624 13.6296 0
          CHANNELS 3 Zrotation Xrotation Yrotation
          End Site
          {
            OFFSET 8.38147 0 0
          }
        }
      }
    }
  }
}
MOTION
Frames:	20
Frame Time:	0.0333333
52.5309 88.4263 -145.033 130.214 -87.7882 41.8673 1.07549 -0.332808 0.105634 2.1517 -0.663114 0.21766 2.15169 -0.66312 0.217654 -20.4619 0.113464 -11.4778 38.9101 1.60896 12.4238 -161.295 -2.56278 -94.1141 -33.0936 -1.21646 84.1806 -19.4213 1.7488 -13.167 9.81442 -83.0853 12.202 -161.361 -5.30829 73.6037 -17.4597 0.435088 -82.7425 -21.5775 -2.40866 13.4979 1.80613 78.686 -1.63401 -6.0775 3.86894 177.999 -16.4806 1.00146 -1.26808 0.676189 11.9938 1.5707 90 -1.13307e-014 -7.95139e-015 -15.3843 -1.10219 177.343 -37.0095 -0.440591 0.309278 6.26371 6.82819 -0.449991 90 1.98785e-015 -0 
52.3893 88.4109 -144.819 109.173 -87.0437 21.2897 1.15742 -0.382374 -0.0182804 2.31482 -0.764561 -0.0286892 2.31481 -0.764559 -0.028698 -19.9829 0.377672 -11.4216 40.3365 1.77313 11.8962 -161.682 -2.17703 -94.1599 -32.2699 -1.00319 83.691 -19.29 1.7323 -13.0715 8.35986 -82.4307 10.7585 -161.77 -4.90057 73.5443 -16.842 0.523551 -83.0424 -21.4911 -2.38907 13.4435 1.78174 78.9309 -1.62157 -5.77447 3.57804 177.445 -16.2344 1.01868 -1.25644 -0.503157 12.9158 1.77822 90 -9.14409e-015 3.18055e-015 -15.1097 -1.61697 176.679 -37.3627 -0.427511 0.311752 6.10162 7.52473 -0.360041 90 -2.38542e-015 4.77083e-015 
52.6849 88.4342 -144.56 100.918 -86.3858 12.531 1.137 -0.307085 0.0476333 2.27431 -0.612682 0.101518 2.2743 -0.612694 0.101509 -19.5154 0.590146 -11.2921 42.1092 1.61235 11.158 -162.074 -1.78617 -94.1482 -31.1882 -0.908063 83.3076 -19.1541 1.72017 -12.9793 7.51155 -81.7224 10.0225 -162.207 -4.51397 73.5569 -16.1824 -0.0749788 -83.5623 -21.4799 -2.38551 13.4366 1.71548 78.7567 -1.56034 -6.18817 3.54462 178.19 -16.9218 1.03016 -1.23807 -0.513865 13.5001 1.87956 90 1.13307e-014 1.59028e-015 -14.7948 -1.62651 177.52 -37.156 -0.437038 0.311407 5.80352 8.42061 -0.242177 90 -3.97569e-015 -1.59028e-015 
52.883 88.4273 -144.32 95.8443 -85.7819 7.75658 1.16734 -0.192968 -0.0559906 2.33454 -0.38652 -0.107893 2.33453 -0.386532 -0.107888 -19.4208 0.62588 -11.6651 43.9622 1.58987 11.5475 -162.143 -1.8461 -94.4969 -29.9524 -1.09222 82.8042 -18.8746 1.68663 -12.8156 7.32736 -81.5892 9.8708 -162.329 -4.57026 73.1992 -16.0787 -0.638544 -83.9712 -21.825 -2.45516 13.618 1.80666 79.352 -1.6533 -6.27478 3.60952 177.997 -16.9188 1.03449 -1.23268 -1.07297 14.0302 2.00833 90 1.61016e-014 -7.15625e-015 -14.6273 -1.76816 177.414 -37.201 -0.439228 0.312493 5.65777 9.15036 -0.152964 90 1.90833e-014 1.11319e-014 
53.1751 88.4779 -143.907 94.0601 -85.0177 5.7902 1.16304 -0.103564 -0.0910117 2.32594 -0.208456 -0.179732 2.32593 -0.208465 -0.179741 -18.7828 0.598298 -11.5091 44.6316 1.19326 11.1669 -162.754 -1.68441 -94.4032 -29.1015 -0.607781 82.1916 -19.1234 1.72452 -12.9136 6.6809 -81.3187 9.21249 -162.955 -4.37604 73.3513 -16.0672 -1.24094 -84.486 -22.0572 -2.50094 13.73 1.90513 79.289 -1.72503 -6.85401 3.3113 178.352 -17.3262 1.0337 -1.23118 -1.70758 14.3708 2.17792 90 3.18055e-015 -9.54166e-015 -14.5103 -1.81687 177.777 -36.7492 -0.439285 0.315994 5.39186 9.28866 -0.086996 90 -7.95139e-015 -2.38542e-015 
53.5095 88.3796 -143.404 91.9993 -84.5575 3.78498 1.23296 0.027871 -0.1259 2.466 0.053543 -0.252219 2.46599 0.0535258 -0.252226 -18.7602 0.750543 -11.4242 45.121 1.17223 10.7011 -162.73 -1.48444 -94.3885 -29.0426 -0.347057 81.64 -19.304 1.74851 -12.9827 6.92417 -81.6052 9.47187 -162.941 -4.17483 73.3927 -15.5369 -1.14523 -84.5647 -22.1629 -2.51862 13.7751 1.81497 79.5115 -1.65123 -7.43906 2.43027 178.375 -17.9668 1.02955 -1.23351 -1.31054 13.476 2.01569 90 -6.16232e-015 1.59028e-015 -14.3372 -1.66773 177.85 -36.2679 -0.444786 0.32118 5.38044 9.34801 -0.0774917 90 -5.56597e-015 -7.95139e-016 
53.9677 88.4532 -142.802 90.3911 -84.5236 1.81342 1.25613 0.202251 -0.0569086 2.51247 0.403667 -0.118093 2.51247 0.40366 -0.118093 -18.6442 1.06685 -11.6039 45.7136 1.69067 10.5775 -162.805 -1.2294 -94.6924 -28.2704 0.0355721 81.5523 -19.6214 1.80014 -13.1411 7.55603 -82.0994 10.0604 -163.028 -3.91005 73.1479 -15.7345 -1.72322 -84.5968 -22.5464 -2.60102 13.9825 1.89478 80.083 -1.72995 -8.68341 1.08373 178.686 -19.57 1.02405 -1.24125 -0.993561 11.5406 1.77148 90 1.90833e-014 -1.66979e-014 -13.7781 -1.31644 178.461 -34.9898 -0.467762 0.315393 4.75401 8.19914 -0.0441482 90 -5.96354e-015 1.98785e-015 
54.2933 88.4321 -142.081 87.974 -84.4894 -0.992085 1.32444 0.335823 0.0207665 2.64882 0.672514 0.033926 2.64881 0.672516 0.0339093 -18.3548 1.01786 -12.0389 45.7656 1.47315 10.6574 -163.12 -1.35853 -95.1248 -28.0304 0.488988 81.4611 -19.9213 1.8478 -13.2902 9.0804 -82.9635 11.5953 -163.358 -4.04124 72.7806 -15.9992 -2.13858 -84.5476 -23.1902 -2.7359 14.322 1.963 80.4196 -1.82123 -9.48267 -1.75677 178.557 -20.4407 1.01922 -1.277 -1.24135 8.43709 1.40168 90 1.61016e-014 -9.54166e-015 -13.8542 -1.87183 178.779 -34.6799 -0.482108 0.306922 5.39742 6.49714 -0.32516 90 1.19271e-015 5.1684e-015 
54.6248 88.6793 -141.285 87.1449 -85.3391 -3.05592 1.44758 0.59112 0.316417 2.89212 1.19049 0.618015 2.89211 1.19048 0.617997 -18.6575 1.27032 -11.9746 45.7471 1.71216 10.138 -162.761 -1.14784 -95.1316 -26.8814 0.0104028 81.6104 -19.76 1.83648 -13.2318 8.65919 -82.7349 11.1717 -163.007 -3.84725 72.7848 -16.5886 -2.20504 -83.7691 -23.8803 -2.88566 14.6728 2.05105 80.6309 -1.90226 -11.5804 -3.30999 179.335 -23.5372 1.00678 -1.23797 -0.962191 5.4171 0.991336 90 1.23246e-014 7.95139e-015 -13.7042 -2.87282 179.742 -33.0496 -0.508497 0.291326 3.9702 5.28781 -0.212681 90 3.19049e-014 -1.98785e-015 
54.8159 88.4222 -140.576 78.2557 -86.786 -12.606 1.6364 0.881117 0.537572 3.26507 1.77771 1.05009 3.26506 1.77771 1.05008 -18.6968 1.32465 -12.1533 45.3172 1.73145 9.95524 -162.72 -1.17451 -95.3278 -25.8064 -0.333343 82.3229 -19.8828 1.87012 -13.3282 9.03802 -82.9448 11.5288 -162.952 -3.85152 72.5973 -17.7867 -2.40724 -82.4867 -24.588 -3.0451 15.0401 2.31409 81.6215 -2.18149 -12.2474 -4.12478 179.896 -25.2329 0.997759 -1.22248 -0.527489 3.39885 0.708552 90 -2.38542e-015 -3.97569e-015 -13.7645 -4.10118 179.967 -32.9575 -0.521805 0.259798 3.80374 2.66847 -0.490762 90 -1.02374e-014 -2.78299e-015 
54.9405 88.271 -139.882 35.5918 -88.5806 -55.2295 1.80527 1.19846 0.604689 3.59898 2.41579 1.17185 3.59897 2.41578 1.17184 -18.5918 1.58039 -11.8369 45.44 1.99556 9.34352 -162.761 -0.823981 -95.1185 -24.4191 -0.468216 83.3452 -19.8509 1.87972 -13.3297 8.72695 -82.8319 11.2628 -162.965 -3.44423 72.7959 -18.992 -2.77779 -81.22 -25.4403 -3.2452 15.493 2.64579 82.7501 -2.53444 -11.8513 -3.532 -179.943 -25.0836 0.990742 -1.22004 -0.782457 2.4018 0.56443 90 -1.98785e-015 7.95139e-016 -14.4885 -4.35303 179.756 -33.8003 -0.525397 0.243108 4.66843 0.720893 -0.795361 90 -1.2921e-015 4.77083e-015 
54.9514 88.238 -139.285 -37.1481 -87.8153 -127.717 1.8946 1.39561 0.642061 3.77515 2.81207 1.23832 3.77515 2.81206 1.23831 -18.0357 1.85224 -11.1001 45.7965 1.7571 7.92775 -163.255 -0.220555 -94.5279 -24.0087 0.125513 84.538 -19.6568 1.8515 -13.2229 9.1899 -83.2907 11.7307 -163.402 -2.74104 73.3506 -19.1112 -2.72605 -79.9578 -25.5504 -3.28027 15.5597 2.57099 82.5077 -2.4534 -10.9853 -2.90385 179.955 -24.203 0.990492 -1.23781 -1.26534 1.72602 0.447072 90 5.96354e-016 6.36111e-015 -14.8468 -4.53771 179.306 -34.2825 -0.508927 0.236442 4.1712 -1.14663 -0.963566 90 7.35503e-015 -3.18055e-015 
54.8016 88.2857 -138.505 -46.6179 -86.9858 -136.747 1.9125 1.17685 0.589088 3.81401 2.37315 1.13906 3.81401 2.37314 1.13905 -17.8607 2.35041 -10.0814 46.9869 2.38781 7.08046 -163.384 0.553961 -93.7168 -23.1502 1.20867 85.5515 -19.7538 1.86826 -13.2514 7.69675 -82.7488 10.2702 -163.436 -1.85895 74.1568 -18.2957 -1.90667 -79.2661 -25.3796 -3.24708 15.4813 2.27281 81.3907 -2.14526 -10.231 -2.8627 179.542 -22.6384 0.992917 -1.27873 -1.96989 1.22416 0.338975 90 -7.15625e-015 -5.56597e-015 -15.6985 -4.54244 178.671 -35.1348 -0.485432 0.23228 4.67423 -1.9576 -1.08032 90 5.56597e-015 1.59028e-014 
54.727 88.3059 -137.712 -43.874 -86.8965 -134.158 1.94752 0.761124 0.698293 3.89266 1.54601 1.3706 3.89266 1.54601 1.37059 -18.0797 2.82545 -9.99656 48.1951 3.38375 7.19639 -163.112 0.933985 -93.7474 -23.0772 1.75825 86.2032 -19.3061 1.79736 -12.9997 6.60865 -81.961 9.18011 -163.132 -1.41199 74.0919 -16.9369 -0.889712 -78.7921 -26.0312 -3.41721 15.8461 2.72687 82.8842 -2.63776 -10.4543 -2.72434 179.845 -22.3006 0.994925 -1.29236 -2.09138 2.39192 0.535592 90 -1.07344e-014 -1.59028e-015 -16.1483 -4.39828 178.995 -35.0613 -0.484234 0.243844 3.76018 -0.797917 -0.90307 90 1.45113e-014 1.11319e-014 
54.7142 88.2497 -136.799 -30.4508 -87.5307 -120.187 1.94997 0.364029 0.611074 3.89301 0.749103 1.20961 3.893 0.749102 1.20959 -18.1069 3.01432 -9.14746 48.0513 3.38099 6.19087 -163.059 1.37865 -93.0059 -23.4051 2.21068 86.234 -18.9779 1.73719 -12.7955 5.17987 -81.1761 7.74558 -163.079 -0.907941 74.8611 -15.4576 -0.9644 -79.243 -27.7479 -3.86672 16.7708 4.43709 85.458 -4.39698 -10.9448 -2.20157 179.625 -21.7665 0.993702 -1.29909 -1.31829 4.40923 0.867864 90 6.16232e-015 -6.36111e-015 -16.9741 -2.88449 179.276 -35.0658 -0.476867 0.259973 1.54699 1.69637 -0.382441 90 -2.5842e-015 -3.97569e-015 
54.7458 88.2841 -135.7 16.7297 -87.9375 -72.6518 1.97299 -0.158528 0.533691 3.9474 -0.298081 1.07267 3.9474 -0.298095 1.07266 -18.9532 1.16395 -8.77129 48.6428 4.80583 4.67043 -162.464 -0.289155 -92.0745 -22.8906 1.62076 85.4867 -18.1619 1.6167 -12.3516 4.29462 -79.627 6.75967 -162.547 -2.63774 75.7933 -14.9468 -1.75981 -80.0338 -29.6461 -4.39548 17.7801 11.1544 87.9486 -11.1236 -11.35 -1.84254 179.597 -21.149 0.986197 -1.2985 0.627043 6.14438 1.07373 90 -3.97569e-016 -0 -17.7548 -1.75002 179.671 -35.0386 -0.449271 0.263494 -0.0625923 5.24278 0.407196 90 -5.96354e-016 7.95139e-015 
54.7951 88.3927 -134.601 49.6978 -86.6322 -40.3871 2.0282 -0.529076 0.714982 4.0631 -1.03199 1.44847 4.06309 -1.032 1.44846 -18.3008 2.61408 -9.70403 47.7237 3.24939 7.46711 -162.84 0.842185 -93.3508 -22.7561 0.614362 84.6189 -17.4771 1.52361 -12.0047 4.26147 -78.888 6.72273 -163.048 -1.62871 74.544 -14.7759 -3.66886 -80.9248 -31.5092 -4.94757 18.757 165.34 88.1523 -165.338 -12.3101 -1.90566 -179.691 -23.2236 0.968216 -1.24587 3.91222 5.69048 0.965451 90 -5.26779e-015 -7.95139e-016 -17.6148 -1.60444 -179.406 -33.9418 -0.446014 0.262806 -1.73193 7.2984 1.07009 90 -4.77083e-015 -4.77083e-015 
54.5693 88.6021 -133.583 56.5489 -85.2838 -33.3476 2.14017 -0.725175 0.728188 4.28991 -1.42206 1.48326 4.28991 -1.42207 1.48325 -18.0789 2.43947 -10.0328 47.091 2.94752 7.60542 -163.032 0.676633 -93.6378 -22.561 -0.61644 83.9093 -17.8647 1.58442 -12.2453 4.403 -78.5574 6.87003 -163.325 -1.89805 74.3283 -13.7318 -5.31252 -81.615 -32.8233 -5.34467 19.407 164.544 88.1847 -164.525 -13.5968 -0.79512 179.938 -28.1505 0.966725 -1.14888 5.07569 1.24265 0.681984 90 -9.36773e-015 5.96354e-016 -17.22 -2.23526 179.979 -32.6999 -0.431642 0.260992 -3.5624 7.75031 1.54607 90 9.34288e-015 -2.38542e-015 
54.4634 88.7713 -132.515 53.4391 -84.7526 -36.78 2.15225 -0.645627 0.811539 4.31381 -1.25975 1.64706 4.31381 -1.25975 1.64705 -17.7911 2.51954 -9.76742 47.6726 2.57961 6.95683 -163.269 0.988951 -93.4821 -23.3 -1.39572 83.2913 -18.5974 1.68987 -12.6684 5.04655 -79.3819 7.54672 -163.632 -1.67993 74.5573 -12.7339 -7.43912 -82.4141 -32.863 -5.33378 19.4094 166.725 88.1329 -166.743 -14.0983 0.627065 -179.487 -35.0474 0.966307 -0.91713 6.26771 -1.81533 0.60275 90 -2.98177e-015 3.18055e-015 -16.6071 -1.84993 -179.688 -31.214 -0.434501 0.261136 -5.14752 8.12413 1.97723 90 2.38542e-015 -5.56597e-015 
54.149 88.8167 -131.541 51.1025 -83.9868 -38.7056 2.17044 -0.719774 0.754037 4.35067 -1.40992 1.53511 4.35067 -1.40993 1.53511 -17.5434 2.35031 -10.2374 48.5723 2.35862 7.70879 -163.547 0.740476 -93.976 -23.8514 -1.72089 82.9893 -20.4294 1.97165 -13.6718 6.43573 -81.2545 8.91067 -163.92 -1.94647 74.1726 -12.2181 -9.02033 -82.9236 -31.7001 -4.98028 18.8144 168.531 87.8461 -168.557 -13.485 0.637751 -179.545 -41.3566 0.941171 -0.604424 6.65478 0.553619 0.604002 90 -2.18663e-015 7.95139e-016 -16.3996 -1.32366 179.779 -30.5842 -0.41369 0.266318 -6.7265 8.29454 2.38168 90 -6.36111e-015 -7.95139e-016 
